<svg xmlns="http://www.w3.org/2000/svg" viewBox="0 0 1440 320"><path fill="#586674" fill-opacity="1" d="M0,288L24,282.7C48,277,96,267,144,256C192,245,240,235,288,218.7C336,203,384,181,432,181.3C480,181,528,203,576,208C624,213,672,203,720,186.7C768,171,816,149,864,154.7C912,160,960,192,1008,202.7C1056,213,1104,203,1152,197.3C1200,192,1248,192,1296,165.3C1344,139,1392,85,1416,58.7L1440,32L1440,320L1416,320C1392,320,1344,320,1296,320C1248,320,1200,320,1152,320C1104,320,1056,320,1008,320C960,320,912,320,864,320C816,320,768,320,720,320C672,320,624,320,576,320C528,320,480,320,432,320C384,320,336,320,288,320C240,320,192,320,144,320C96,320,48,320,24,320L0,320Z"></path></svg>